<?xml version="1.0" encoding="UTF-8"?><svg width="310" height="50" viewBox="0 0 310 50" xmlns="http://www.w3.org/2000/svg" xmlns:xlink="http://www.w3.org/1999/xlink"><defs><path d="M110.548 2.214c1.375 0 2.43 1.096 2.43 2.525 0 1.428-1.055 2.524-2.43 2.524-1.375 0-2.43-1.096-2.43-2.524-.107-1.429 1.055-2.525 2.43-2.525zm0 .554c-1.055 0-1.908.875-1.908 1.97 0 1.097.842 1.971 1.908 1.971 1.055 0 1.791-.874 1.791-1.97s-.736-1.971-1.79-1.971zm-.426 3.288h-.523V3.532c.214 0 .523-.11.95-.11.426 0 .639.11.841.22.107.111.213.333.213.543 0 .332-.213.554-.522.554.213.11.427.221.427.653.106.443.106.553.213.553h-.63c-.106-.11-.106-.332-.212-.553 0-.222-.214-.443-.523-.443h-.213v1.107h-.021zm0-1.428h.213c.32 0 .522-.11.522-.332 0-.222-.106-.443-.522-.443h-.32v.764h.107v.01zM6.439 21.068l-2.846 8.78H0L9.19 1.883h4.22L22.6 29.85h-3.7l-2.845-8.78H6.439zm8.763-2.844l-2.633-8.005c-.64-1.86-.95-3.51-1.376-5.038h-.106c-.427 1.639-.842 3.4-1.375 5.038l-2.644 8.115h8.123v-.11h.01zM25.446.354h3.486v12.61h.107c1.268-2.191 3.486-3.73 6.545-3.73 4.755 0 8.23 4.162 8.134 10.196 0 7.13-4.328 10.75-8.656 10.75-2.74 0-5.064-1.095-6.439-3.73h-.106l-.107 3.288h-3.06c.107-1.318.214-3.4.214-5.16L25.446.355zm3.486 21.38c0 .442.107.885.107 1.317.629 2.524 2.74 4.273 5.277 4.273 3.699 0 5.916-3.067 5.916-7.672 0-4.063-2.004-7.462-5.703-7.462-2.43 0-4.648 1.76-5.384 4.495-.106.443-.213.874-.213 1.539v3.51zm17.633-5.703c0-2.302 0-4.384-.214-6.244h3.06l.106 3.942h.214c.842-2.735 2.953-4.385 5.383-4.385.416 0 .63 0 .949.111v3.399c-.32-.11-.736-.11-1.162-.11-2.43 0-4.222 1.97-4.755 4.716-.106.431-.106 1.096-.106 1.638v10.75h-3.593l.118-13.817zm13.197-6.244h3.486V29.85h-3.486V9.787zM73.28 4.96v4.827h5.064v2.735H73.28v10.86c0 2.525.63 3.953 2.644 3.953.949 0 1.482-.11 2.004-.221l.214 2.746c-.64.332-1.802.553-3.06.553-1.684 0-2.953-.553-3.806-1.539-.948-1.096-1.375-2.845-1.375-5.259V12.644h-2.953V9.898H69.9v-3.62l3.38-1.318zm10.767 15.456c.107 4.938 3.06 7.019 6.652 7.019 2.538 0 4.009-.432 5.384-1.096l.629 2.624c-1.269.553-3.38 1.317-6.439 1.317-5.916 0-9.509-4.063-9.509-10.196 0-6.134 3.38-10.85 9.083-10.85 6.332 0 8.027 5.701 8.027 9.432 0 .775-.107 1.318-.107 1.75h-13.72zm10.245-2.525c0-2.302-.949-5.923-4.861-5.923-3.593 0-5.064 3.4-5.384 5.923h10.245zm6.972-15.787h3.486v27.745h-3.486V2.104zm-37.6 1.981c0 1.207-.841 2.192-2.217 2.192-1.268 0-2.11-.985-2.11-2.192 0-1.317.948-2.303 2.217-2.303 1.269.1 2.11 1.097 2.11 2.303z" id="a"/><path id="c" d="M3.98.224v11.648h12.589V.224h3.434v27.731h-3.434v-12.97H3.979v12.97H.662V.224z"/><path d="M18.63 10.945c0 7.183-4.802 10.351-9.299 10.351-5.014 0-8.993-3.916-8.993-10.021C.338 4.73 4.412.924 9.648.924c5.32-.11 8.983 4.026 8.983 10.021m-14.842.11c0 4.246 2.407 7.513 5.648 7.513 3.24 0 5.647-3.157 5.647-7.623 0-3.267-1.573-7.524-5.647-7.524-3.98.11-5.648 3.927-5.648 7.634" id="e"/><path d="M.88 6.589c0-2.068 0-3.707-.107-5.236h3.094l.107 3.157h.107C5.145 2.662 6.96.913 10.043.913c2.556 0 4.575 1.628 5.434 3.916h.108c.634-1.089 1.385-1.958 2.126-2.508 1.171-.869 2.45-1.419 4.254-1.419 2.556 0 6.272 1.738 6.272 8.503v11.55h-3.404V9.735c0-3.707-1.386-5.995-4.146-5.995-2.02 0-3.513 1.529-4.05 3.267-.107.429-.322 1.089-.322 1.738v12.089H12.91V9.064c0-3.168-1.374-5.346-3.93-5.346-2.127 0-3.717 1.749-4.265 3.487a4.755 4.755 0 0 0-.311 1.738v11.77H.999V6.589H.88z" id="g"/><path d="M3.61 11.484c.106 4.906 3.05 6.864 6.608 6.864 2.51 0 3.98-.44 5.347-.979l.624 2.607c-1.26.55-3.356 1.309-6.395 1.309-5.876 0-9.434-4.037-9.434-10.131C.36 5.159 3.716.374 9.381.374c6.29 0 7.973 5.665 7.973 9.372 0 .77-.106 1.309-.106 1.639l-13.637.099zm10.176-2.508c0-2.288-.942-5.885-4.818-5.885-3.568 0-5.04 3.377-5.357 5.885h10.175z" id="i"/><path d="M6.92 20.01l-2.696 8.845H.7L9.712.68h4.14l9.012 28.175h-3.628l-2.791-8.845H6.921zm8.7-2.766L13.025 9.18c-.616-1.874-.94-3.536-1.338-5.187h-.104c-.419 1.662-.826 3.424-1.349 5.086l-2.593 8.176h7.977v-.011z" id="k"/><path d="M4.34.924l2.556 10.131c.526 2.178 1.063 4.246 1.482 6.325h.107c.43-2.068 1.064-4.147 1.708-6.325L13.383.924h2.986l2.975 9.911a65.873 65.873 0 0 1 1.708 6.545h.107c.322-2.068.849-4.147 1.482-6.424L25.413.935h3.501l-6.273 19.932h-3.19l-2.975-9.482c-.633-2.178-1.278-4.246-1.707-6.534h-.108c-.526 2.398-1.063 4.466-1.804 6.644l-3.094 9.482h-3.19L.72 1.045h3.62V.924z" id="m"/><path d="M15.81 16.071c0 1.738.106 3.377.319 4.785h-3.156l-.319-2.508h-.095c-1.052 1.518-3.156 2.937-5.897 2.937-3.9 0-5.897-2.827-5.897-5.775 0-4.785 4.101-7.403 11.57-7.403v-.44c0-1.639-.414-4.576-4.313-4.576-1.785 0-3.676.539-5.047 1.529l-.744-2.398C3.804 1.133 6.12.484 8.553.484c5.897 0 7.363 4.136 7.363 8.173l-.106 7.414zm-3.368-5.445c-3.793-.11-8.096.649-8.096 4.466 0 2.288 1.466 3.487 3.261 3.487 2.53 0 4.102-1.628 4.633-3.377.106-.33.213-.759.213-1.199v-3.377h-.011z" id="o"/><path d="M4.454.933l4.18 11.89c.423 1.321.95 2.855 1.257 4.066h.105c.317-1.211.739-2.756 1.256-4.178L15.021.933h3.652l-5.225 14.311c-2.196 6.056-3.97 9.678-6.587 12-1.678 1.545-3.346 2.2-4.285 2.412l-.834-3.078c.834-.334 1.984-.878 3.03-1.767.939-.767 2.1-2.2 2.923-4.067.106-.333.306-.655.306-.877 0-.211-.095-.545-.2-.99L.686.945h3.768v-.01z" id="q"/><path id="s" d="M4.55.727H2.97v5.086h-.59V.727H.79V.143h3.76z"/><path id="u" d="M1.14.143l1.48 4.62L4.21.143H5v5.67h-.59V1.298L2.82 5.813h-.4L.84 1.298l.1 2.31v2.205h-.7V.143z"/></defs><g fill="none" fill-rule="evenodd"><g transform="translate(0 6)"><mask id="b" fill="#fff"><use xlink:href="#a"/></mask><path fill="#0067DB" fill-rule="nonzero" mask="url(#b)" d="M-5.277-5.126h123.543v40.798H-5.277z"/></g><g transform="translate(118 8)"><mask id="d" fill="#fff"><use xlink:href="#c"/></mask><path fill="#0067DB" fill-rule="nonzero" mask="url(#d)" d="M-4.546-5.32h29.747v38.718H-4.546z"/></g><g transform="translate(142 15)"><mask id="f" fill="#fff"><use xlink:href="#e"/></mask><path fill="#0067DB" fill-rule="nonzero" mask="url(#f)" d="M-4.993-4.642H23.76v31.273H-4.993z"/></g><g transform="translate(163 15)"><mask id="h" fill="#fff"><use xlink:href="#g"/></mask><path fill="#0067DB" fill-rule="nonzero" mask="url(#h)" d="M-4.543-4.642h37.979v30.844H-4.543z"/></g><g transform="translate(194 15)"><mask id="j" fill="#fff"><use xlink:href="#i"/></mask><path fill="#0067DB" fill-rule="nonzero" mask="url(#j)" d="M-4.881-4.961H22.49v31.702H-4.881z"/></g><g transform="translate(212 7)"><mask id="l" fill="#fff"><use xlink:href="#k"/></mask><path fill="#0067DB" fill-rule="nonzero" mask="url(#l)" d="M-4.464-4.74h32.409v39.217H-4.464z"/></g><g transform="translate(234 15)"><mask id="n" fill="#fff"><use xlink:href="#m"/></mask><path fill="#0067DB" fill-rule="nonzero" mask="url(#n)" d="M-4.597-4.532h38.828v30.833H-4.597z"/></g><g transform="translate(263 15)"><mask id="p" fill="#fff"><use xlink:href="#o"/></mask><path fill="#0067DB" fill-rule="nonzero" mask="url(#p)" d="M-4.399-4.961h25.883v31.702H-4.399z"/></g><g transform="translate(280 15)"><mask id="r" fill="#fff"><use xlink:href="#q"/></mask><path fill="#0067DB" fill-rule="nonzero" mask="url(#r)" d="M-4.528-4.578h28.437v39.722H-4.528z"/></g><g transform="translate(300 10)"><mask id="t" fill="#fff"><use xlink:href="#s"/></mask><path fill="#0067DB" fill-rule="nonzero" mask="url(#t)" d="M-4.16-5.632H9.51v17.22H-4.16z"/></g><g transform="translate(305 10)"><mask id="v" fill="#fff"><use xlink:href="#u"/></mask><path fill="#0067DB" fill-rule="nonzero" mask="url(#v)" d="M-4.71-5.632H9.95v17.22H-4.71z"/></g></g></svg>